<svg xmlns="http://www.w3.org/2000/svg" xmlns:xlink="http://www.w3.org/1999/xlink" id="Lager_1" style="enable-background:new -265 388.9 64 64;" version="1.1" viewBox="-265 388.9 64 64" xml:space="preserve"><g><path d="M-237.9,417.6h-16.5c-0.9,0-1.6-0.7-1.6-1.6v-16.5c0-0.9,0.7-1.6,1.6-1.6h16.4c0.9,0,1.6,0.7,1.6,1.6v16.4   C-236.3,416.9-237,417.6-237.9,417.6z" fill="#03a9f4"/><path d="M-211.6,417.6h-16.5c-0.9,0-1.6-0.7-1.6-1.6v-16.5c0-0.9,0.7-1.6,1.6-1.6h16.4c0.9,0,1.6,0.7,1.6,1.6v16.4   C-210,416.9-210.7,417.6-211.6,417.6z" fill="#03a9f4"/><path d="M-237.9,443.9h-16.5c-0.9,0-1.6-0.7-1.6-1.6v-16.5c0-0.9,0.7-1.6,1.6-1.6h16.4c0.9,0,1.6,0.7,1.6,1.6v16.4   C-236.3,443.2-237,443.9-237.9,443.9z" fill="#03a9f4"/><path d="M-211.6,443.9h-16.5c-0.9,0-1.6-0.7-1.6-1.6v-16.5c0-0.9,0.7-1.6,1.6-1.6h16.4c0.9,0,1.6,0.7,1.6,1.6v16.4   C-210,443.2-210.7,443.9-211.6,443.9z" fill="#03a9f4"/></g></svg>